<svg id="Capa_1" enable-background="new 0 0 512 512" height="512" viewBox="0 0 512 512" width="512" xmlns="http://www.w3.org/2000/svg"><g><path d="m497 151h-136v-136c0-8.291-6.709-15-15-15h-90-90c-8.291 0-15 6.709-15 15v136h-136c-8.291 0-15 6.709-15 15v180c0 8.291 6.709 15 15 15h136v136c0 8.291 6.709 15 15 15h90 90c8.291 0 15-6.709 15-15v-136h136c8.291 0 15-6.709 15-15v-180c0-8.291-6.709-15-15-15z" fill="#ff7f40"/><path d="m361 497v-136h136c8.291 0 15-6.709 15-15v-180c0-8.291-6.709-15-15-15h-136v-136c0-8.291-6.709-15-15-15h-90v512h90c8.291 0 15-6.709 15-15z" fill="#f25a3c"/><circle cx="196" cy="196" fill="#465166" r="15"/><circle cx="316" cy="196" fill="#2d384d" r="15"/><circle cx="256" cy="166" fill="#465166" r="15"/><path d="m271 166c0-8.286-6.716-15-15-15v30c8.284 0 15-6.716 15-15z" fill="#2d384d"/><path d="m299.066 242.934c-5.61-18.457-22.793-31.934-43.066-31.934s-37.456 13.477-43.066 31.934c-18.457 5.61-31.934 22.793-31.934 43.066 0 24.814 20.186 45 45 45 11.514 0 22.031-4.351 30-11.484 7.969 7.134 18.486 11.484 30 11.484 24.814 0 45-20.186 45-45 0-20.273-13.477-37.456-31.934-43.066z" fill="#465166"/><path d="m331 286c0-20.273-13.477-37.456-31.934-43.066-5.61-18.457-22.793-31.934-43.066-31.934v108.516c7.969 7.134 18.486 11.484 30 11.484 24.814 0 45-20.186 45-45z" fill="#2d384d"/></g></svg>