<svg width="103" height="80" viewBox="0 0 103 80" fill="none" xmlns="http://www.w3.org/2000/svg">
<path d="M48.45 3.8001L45.45 1.9001L2.7 68.8501L2.1 69.8001L0.75 71.9001L3.25 73.5001L4.6 71.4001L5.2 70.4501L45.2 7.8001L42.5 70.4501L45.4 72.3001L48.45 3.8001ZM42.2 34.6501L42.55 28.5001L21.15 62.0001L12.7 75.3001L12.1 76.2501L10.75 78.3501L13.25 80.0001L14.6 77.8501L15.2 76.9001L23.7 63.6501L42.2 34.6501ZM42.85 22.5001L43.3 16.3001L16.15 58.8001L7.7 72.1001L7.1 73.0001L5.75 75.1501L8.25 76.7501L9.6 74.6501L10.2 73.7001L18.65 60.4001L42.85 22.5001ZM92.3 2.4001L89.85 0.850098L60.4 47.1001L59.95 53.1501L92.3 2.4001ZM97.25 5.6501L94.85 4.0501L59.65 59.2001L59.4 65.0501L97.25 5.6501ZM54.25 7.5001L51.35 5.6501L48.4 74.2001L51.3 76.0501L54.25 7.5001ZM60.1 11.2501L57.15 9.4001L54.15 77.9001L57.1 79.7501L102.3 8.9001L99.8 7.3001L57.35 73.9001L60.1 11.2501Z" fill="white"/>
</svg>
